<mxfile host="65bd71144e">
    <diagram id="ueDztWpqsZQ93oSX34Va" name="Page-1">
        <mxGraphModel dx="1722" dy="1162" grid="1" gridSize="10" guides="1" tooltips="1" connect="1" arrows="1" fold="1" page="1" pageScale="1" pageWidth="850" pageHeight="1100" math="0" shadow="0">
            <root>
                <mxCell id="0"/>
                <mxCell id="1" parent="0"/>
                <mxCell id="2" value="　住む" style="rounded=0;whiteSpace=wrap;html=1;align=left;" parent="1" vertex="1">
                    <mxGeometry x="340" y="100" width="60" height="30" as="geometry"/>
                </mxCell>
                <mxCell id="3" value="　暮らす" style="rounded=0;whiteSpace=wrap;html=1;align=left;" parent="1" vertex="1">
                    <mxGeometry x="340" y="140" width="60" height="30" as="geometry"/>
                </mxCell>
                <mxCell id="4" value="　犬" style="rounded=0;whiteSpace=wrap;html=1;align=left;" parent="1" vertex="1">
                    <mxGeometry x="340" y="180" width="60" height="30" as="geometry"/>
                </mxCell>
                <mxCell id="5" value="　大きな" style="rounded=0;whiteSpace=wrap;html=1;align=left;" parent="1" vertex="1">
                    <mxGeometry x="340" y="220" width="60" height="30" as="geometry"/>
                </mxCell>
                <mxCell id="6" value="　高い" style="rounded=0;whiteSpace=wrap;html=1;align=left;" parent="1" vertex="1">
                    <mxGeometry x="340" y="260" width="60" height="30" as="geometry"/>
                </mxCell>
                <mxCell id="8" value="" style="rounded=0;whiteSpace=wrap;html=1;align=left;fillColor=#666666;" parent="1" vertex="1">
                    <mxGeometry x="420" y="100" width="120" height="30" as="geometry"/>
                </mxCell>
                <mxCell id="13" value="" style="rounded=0;whiteSpace=wrap;html=1;align=left;fillColor=#666666;" parent="1" vertex="1">
                    <mxGeometry x="420" y="140" width="90" height="30" as="geometry"/>
                </mxCell>
                <mxCell id="14" value="" style="rounded=0;whiteSpace=wrap;html=1;align=left;fillColor=#999999;" parent="1" vertex="1">
                    <mxGeometry x="420" y="180" width="50" height="30" as="geometry"/>
                </mxCell>
                <mxCell id="15" value="" style="rounded=0;whiteSpace=wrap;html=1;align=left;fillColor=#CCCCCC;" parent="1" vertex="1">
                    <mxGeometry x="420" y="220" width="30" height="30" as="geometry"/>
                </mxCell>
                <mxCell id="16" value="" style="rounded=0;whiteSpace=wrap;html=1;align=left;fillColor=#CCCCCC;" parent="1" vertex="1">
                    <mxGeometry x="420" y="260" width="20" height="30" as="geometry"/>
                </mxCell>
                <mxCell id="52" value="確率" style="text;html=1;strokeColor=none;fillColor=none;align=center;verticalAlign=middle;whiteSpace=wrap;rounded=0;fontColor=#FFFFFF;" parent="1" vertex="1">
                    <mxGeometry x="450" y="100" width="60" height="30" as="geometry"/>
                </mxCell>
                <mxCell id="68" value="「大きな家に」に続く語を選ぶ" style="rounded=0;whiteSpace=wrap;html=1;strokeColor=#999999;fontColor=#000000;fillColor=#FFFFFF;" parent="1" vertex="1">
                    <mxGeometry x="40" y="40" width="200" height="40" as="geometry"/>
                </mxCell>
                <mxCell id="69" value="top_p: 1.0" style="rounded=0;whiteSpace=wrap;html=1;strokeColor=#999999;fontColor=#000000;fillColor=#E6E6E6;" parent="1" vertex="1">
                    <mxGeometry x="240" y="100" width="80" height="190" as="geometry"/>
                </mxCell>
                <mxCell id="70" value="top_p: 0.75" style="rounded=0;whiteSpace=wrap;html=1;strokeColor=#999999;fontColor=#000000;fillColor=#E6E6E6;" parent="1" vertex="1">
                    <mxGeometry x="140" y="100" width="80" height="150" as="geometry"/>
                </mxCell>
                <mxCell id="71" value="top_p: 0.5" style="rounded=0;whiteSpace=wrap;html=1;strokeColor=#999999;fontColor=#000000;fillColor=#E6E6E6;" parent="1" vertex="1">
                    <mxGeometry x="40" y="100" width="80" height="110" as="geometry"/>
                </mxCell>
            </root>
        </mxGraphModel>
    </diagram>
</mxfile>